<svg xmlns="http://www.w3.org/2000/svg" viewBox="0 0 229.23 352.9"><title>Recurso 1</title><g style="isolation:isolate"><g id="Capa_2" data-name="Capa 2"><g id="Layer_1" data-name="Layer 1"><path d="M185.5,0H2A106.84,106.84,0,0,1,63.16,96.6c0,5.2-3.09,10.52-3.09,13.69,0,12.27,26.61,39.32,23.21,48.68-2.9,8-18,3.45-21,12.48-1.42,4.29,4,9.38,2.57,12.36s-8.08,3.32-8.08,3.32,9.3,4.37-5.6,19.11c0,0,16.91,29.52-24,29.52C2.2,235.76.07,271.87,0,282.75H48.72l-13,61.48A7.17,7.17,0,0,0,47,351.5l94.21-68.75H185.5A43.73,43.73,0,0,0,229.23,239V43.72A43.73,43.73,0,0,0,185.5,0Zm-77,207A14.55,14.55,0,1,1,123,192.44,14.54,14.54,0,0,1,108.46,207ZM153,207a14.55,14.55,0,1,1,14.55-14.55A14.54,14.54,0,0,1,153,207Zm44.56,0a14.55,14.55,0,1,1,14.55-14.55A14.54,14.54,0,0,1,197.58,207Z" fill="#76b900"/><polygon points="43.81 306.04 109.29 306.04 141.21 282.75 48.72 282.75 43.81 306.04" fill="#76b900" opacity="0.3" style="mix-blend-mode:multiply"/></g></g></g></svg>